<?xml version="1.0" standalone="no"?><!DOCTYPE svg PUBLIC "-//W3C//DTD SVG 1.1//EN" "http://www.w3.org/Graphics/SVG/1.1/DTD/svg11.dtd"><svg t="1571208080344" class="icon" viewBox="0 0 1024 1024" version="1.1" xmlns="http://www.w3.org/2000/svg" p-id="4051" xmlns:xlink="http://www.w3.org/1999/xlink" width="200" height="200"><defs><style type="text/css"></style></defs><path d="M595.392 504.96l158.4 158.336-90.496 90.496-158.4-158.4-158.4 158.4L256 663.296l158.4-158.4L256 346.496 346.496 256 504.96 414.4 663.296 256l90.496 90.496L595.392 504.96zM512 1024A512 512 0 1 1 512 0a512 512 0 0 1 0 1024z m3.008-92.992a416 416 0 1 0 0-832 416 416 0 0 0 0 832z" fill="#262626" p-id="4052"></path></svg>