<?xml version="1.0" standalone="no"?><!DOCTYPE svg PUBLIC "-//W3C//DTD SVG 1.1//EN" "http://www.w3.org/Graphics/SVG/1.1/DTD/svg11.dtd"><svg t="1541662663143" class="icon" style="" viewBox="0 0 1024 1024" version="1.1" xmlns="http://www.w3.org/2000/svg" p-id="9210" xmlns:xlink="http://www.w3.org/1999/xlink" width="200" height="200"><defs><style type="text/css"></style></defs><path d="M513.7 420.382c-50.636 0-92.066 41.43-92.066 92.066s41.43 92.066 92.066 92.066 92.066-41.43 92.066-92.066-41.43-92.066-92.066-92.066z m322.23-322.23H191.471c-51.096 0-92.066 41.43-92.066 92.066v644.459c0 50.636 40.969 92.066 92.066 92.066H835.93c51.096 0 92.066-41.43 92.066-92.066v-644.46c0-50.636-40.97-92.065-92.066-92.065z m-80.558 414.295c0 10.588-0.921 21.175-2.302 31.302l68.129 53.398c5.984 5.064 7.826 13.81 3.683 20.715l-64.446 111.399c-4.143 6.905-12.429 9.667-19.794 6.905l-80.097-32.223c-16.572 12.889-34.985 23.477-54.319 31.763l-11.969 85.161c-1.381 7.826-8.286 13.81-16.112 13.81H449.254c-7.826 0-14.73-5.984-16.112-13.35l-11.969-85.161c-19.794-8.286-37.747-18.873-54.319-31.763l-80.097 32.223c-7.365 2.762-15.651 0-19.794-6.905l-64.446-111.399c-4.143-6.905-2.302-15.651 3.683-20.715l68.129-53.398c-1.381-10.588-2.302-21.175-2.302-31.763s0.921-21.175 2.302-31.302L206.2 427.746c-5.984-5.064-7.826-13.81-3.683-20.715l64.446-111.399c4.143-6.905 12.429-9.667 19.794-6.905l80.097 32.223c16.572-12.889 34.985-23.477 54.319-31.763l11.969-85.161c1.381-7.826 8.286-13.81 16.112-13.81h128.892c7.826 0 14.73 5.984 16.112 13.35l11.969 85.161c19.794 8.286 37.747 18.873 54.319 31.763l80.097-32.223c7.365-2.762 15.651 0 19.794 6.905l64.446 111.399c4.143 6.905 2.302 15.651-3.683 20.715l-68.129 53.398c1.381 10.588 2.301 21.175 2.301 31.763z" p-id="9211"></path></svg>