<?xml version="1.0" standalone="no"?><!DOCTYPE svg PUBLIC "-//W3C//DTD SVG 1.1//EN" "http://www.w3.org/Graphics/SVG/1.1/DTD/svg11.dtd"><svg t="1567579502596" class="icon" viewBox="0 0 1024 1024" version="1.1" xmlns="http://www.w3.org/2000/svg" p-id="6988" xmlns:xlink="http://www.w3.org/1999/xlink" width="200" height="200"><defs><style type="text/css"></style></defs><path d="M857.6 198.4c28.2368 0 51.2 22.9632 51.2 51.2L908.8 896c0 28.2368-22.9632 51.2-51.2 51.2L315.7248 947.2c-28.2368 0-51.2-22.9632-51.2-51.2L264.5248 249.6c0-28.2368 22.9632-51.2 51.2-51.2L857.6 198.4M857.6 147.2 315.7248 147.2c-56.32 0-102.4 46.08-102.4 102.4L213.3248 896c0 56.32 46.08 102.4 102.4 102.4L857.6 998.4c56.32 0 102.4-46.08 102.4-102.4L960 249.6C960 193.28 913.92 147.2 857.6 147.2L857.6 147.2z" p-id="6989"></path><path d="M163.5584 828.16c-27.4432 0-49.7792-21.824-49.7792-48.64L113.7792 122.88c0-26.816 22.336-48.64 49.7792-48.64l547.5584 0c27.4432 0 49.7792 21.824 49.7792 48.64l49.7792 0c0-53.504-44.8-97.28-99.5584-97.28L163.5584 25.6C108.8 25.6 64 69.376 64 122.88l0 656.64c0 53.504 44.8 97.28 99.5584 97.28l99.5584 0 0-48.64L163.5584 828.16z" p-id="6990"></path></svg>