<?xml version="1.0" standalone="no"?><!DOCTYPE svg PUBLIC "-//W3C//DTD SVG 1.1//EN" "http://www.w3.org/Graphics/SVG/1.1/DTD/svg11.dtd"><svg t="1550744213950" class="icon" style="" viewBox="0 0 1134 1024" version="1.1" xmlns="http://www.w3.org/2000/svg" p-id="11921" xmlns:xlink="http://www.w3.org/1999/xlink" width="221.484375" height="200"><defs><style type="text/css"></style></defs><path d="M1119.86383 396.52766L588.255319 8.714894c-13.07234-8.714894-30.502128-8.714894-43.574468 0L13.07234 396.52766c-13.07234 13.07234-17.429787 34.859574-4.357446 52.289361 13.07234 13.07234 34.859574 17.429787 47.931915 4.357447l47.931914-34.859574v91.506383l4.357447 74.076595v335.523405c0 56.646809 47.931915 104.578723 104.578724 104.578723h209.157446c17.429787 0 34.859574-17.429787 34.859575-34.859574v-387.812766h213.514894v387.812766c0 17.429787 17.429787 34.859574 34.859574 34.859574h213.514894c61.004255 0 108.93617-47.931915 108.93617-104.578723V413.957447l47.931915 34.859574c8.714894 4.357447 13.07234 8.714894 21.787234 8.714894s21.787234-4.357447 30.502127-13.072341c8.714894-13.07234 8.714894-34.859574-8.714893-47.931914z" p-id="11922"></path></svg>