<?xml version="1.0" standalone="no"?><!DOCTYPE svg PUBLIC "-//W3C//DTD SVG 1.1//EN" "http://www.w3.org/Graphics/SVG/1.1/DTD/svg11.dtd"><svg class="icon" width="200px" height="200.00px" viewBox="0 0 1024 1024" version="1.1" xmlns="http://www.w3.org/2000/svg"><path fill="#ddd" d="M881.277 512c0-44.845 19.861-85.167 51.471-113.064 14.694-12.967 18.4-34.383 8.483-51.286l-70.568-120.292c-9.686-16.511-29.496-23.989-47.756-18.242-15.148 4.768-31.307 7.344-48.084 7.344-75.071 0-137.788-51.579-152.902-120.374C617.805 77.343 601.188 64 581.998 64H442.004c-19.19 0-35.807 13.343-39.925 32.086-15.114 68.795-77.831 120.374-152.904 120.374-16.775 0-32.932-2.576-48.079-7.344-18.259-5.747-38.069 1.73-47.756 18.241L82.767 347.649c-9.917 16.903-6.211 38.32 8.483 51.288 31.611 27.897 51.47 68.218 51.47 113.063 0 44.844-19.859 85.166-51.47 113.063-14.694 12.968-18.4 34.384-8.483 51.288l70.571 120.292c9.686 16.511 29.497 23.988 47.756 18.241 15.147-4.768 31.304-7.344 48.079-7.344 75.075 0 137.791 51.578 152.905 120.374C406.195 946.657 422.813 960 442.003 960H582c19.19 0 35.808-13.343 39.925-32.086 15.113-68.796 77.829-120.374 152.902-120.374 16.776 0 32.933 2.576 48.081 7.344 18.26 5.748 38.07-1.73 47.756-18.241l70.569-120.291c9.917-16.904 6.211-38.321-8.484-51.289-31.611-27.898-51.472-68.22-51.472-113.063zM824.37 749.075a224.648 224.648 0 0 0-49.543-5.535c-29.523 0-58.211 5.657-85.266 16.814-26.204 10.806-49.75 26.288-69.984 46.015-20.347 19.838-36.344 42.99-47.547 68.815A214.314 214.314 0 0 0 564.251 896H459.75a213.987 213.987 0 0 0-7.779-20.816c-11.203-25.825-27.2-48.978-47.547-68.815-20.234-19.728-43.78-35.209-69.984-46.015-27.056-11.157-55.744-16.814-85.267-16.814a224.63 224.63 0 0 0-49.541 5.535l-52.341-89.218a217.351 217.351 0 0 0 28.408-37.07A213.395 213.395 0 0 0 206.72 512a213.407 213.407 0 0 0-31.02-110.788 217.39 217.39 0 0 0-28.408-37.07l52.341-89.218a224.683 224.683 0 0 0 49.541 5.535c29.523 0 58.211-5.657 85.267-16.814 26.204-10.806 49.75-26.287 69.984-46.015 20.347-19.838 36.344-42.99 47.547-68.815a214.248 214.248 0 0 0 7.779-20.816h104.5a213.873 213.873 0 0 0 7.779 20.815c11.203 25.824 27.2 48.977 47.547 68.815 20.234 19.728 43.78 35.209 69.983 46.016 27.056 11.157 55.743 16.814 85.266 16.814a224.65 224.65 0 0 0 49.544-5.535l52.338 89.217A217.344 217.344 0 0 0 848.3 401.21a213.396 213.396 0 0 0-31.022 110.789A213.39 213.39 0 0 0 848.3 622.786a217.274 217.274 0 0 0 28.409 37.071l-52.339 89.218zM512 320c-106.039 0-192 85.961-192 192s85.961 192 192 192 192-85.961 192-192-85.961-192-192-192z m90.51 282.51C578.334 626.686 546.19 640 512 640s-66.334-13.314-90.51-37.49C397.314 578.333 384 546.19 384 512s13.314-66.334 37.49-90.51C445.666 397.314 477.81 384 512 384s66.334 13.314 90.51 37.49C626.686 445.666 640 477.81 640 512s-13.314 66.333-37.49 90.51z" /></svg>