<?xml version="1.0" standalone="no"?><!DOCTYPE svg PUBLIC "-//W3C//DTD SVG 1.1//EN" "http://www.w3.org/Graphics/SVG/1.1/DTD/svg11.dtd"><svg t="1550818201268" class="icon" style="" viewBox="0 0 1024 1024" version="1.1" xmlns="http://www.w3.org/2000/svg" p-id="9619" xmlns:xlink="http://www.w3.org/1999/xlink" width="200" height="200"><defs><style type="text/css"></style></defs><path d="M768 256H403.2c-19.2 0-32 12.8-32 32s12.8 32 32 32H768c19.2 0 32-12.8 32-32S787.2 256 768 256zM307.2 256H256c-12.8 0-32 12.8-32 32s12.8 32 32 32h51.2c19.2 0 32-12.8 32-32 0-12.8-12.8-32-32-32zM768 480H403.2c-19.2 0-32 12.8-32 32s12.8 32 32 32H768c19.2 0 32-12.8 32-32s-12.8-32-32-32zM307.2 480H256c-12.8 0-32 12.8-32 32s12.8 32 32 32h51.2c19.2 0 32-12.8 32-32s-12.8-32-32-32zM768 704H403.2c-19.2 0-32 12.8-32 32s12.8 32 32 32H768c19.2 0 32-12.8 32-32s-12.8-32-32-32zM307.2 704H256c-19.2 0-32 12.8-32 32 0 12.8 12.8 32 32 32h51.2c19.2 0 32-12.8 32-32s-12.8-32-32-32z" fill="" p-id="9620"></path><path d="M800 64h-576C134.4 64 64 134.4 64 224v576C64 889.6 134.4 960 224 960h576c89.6 0 160-70.4 160-160v-576C960 134.4 889.6 64 800 64zM896 800c0 51.2-44.8 96-96 96h-576c-51.2 0-96-44.8-96-96v-576C128 172.8 172.8 128 224 128h576c51.2 0 96 44.8 96 96v576z" fill="" p-id="9621"></path></svg>