<?xml version="1.0" standalone="no"?><!DOCTYPE svg PUBLIC "-//W3C//DTD SVG 1.1//EN" "http://www.w3.org/Graphics/SVG/1.1/DTD/svg11.dtd"><svg t="1550742920823" class="icon" style="" viewBox="0 0 1024 1024" version="1.1" xmlns="http://www.w3.org/2000/svg" p-id="2399" xmlns:xlink="http://www.w3.org/1999/xlink" width="200" height="200"><defs><style type="text/css"></style></defs><path d="M853.333333 426.666667a42.666667 42.666667 0 0 0-42.666666 42.666666v384H213.333333v-128h42.666667a42.666667 42.666667 0 0 0 0-85.333333H85.333333a42.666667 42.666667 0 0 0 0 85.333333h42.666667v170.666667a42.666667 42.666667 0 0 0 42.666667 42.666667h682.666666a42.666667 42.666667 0 0 0 42.666667-42.666667V469.333333a42.666667 42.666667 0 0 0-42.666667-42.666666z" p-id="2400"></path><path d="M964.693333 180.053333l-120.746666-120.746666a42.666667 42.666667 0 0 0-60.586667 0l-301.653333 301.653333a44.8 44.8 0 0 0-12.373334 30.293333V512a42.666667 42.666667 0 0 0 42.666667 42.666667h120.746667a44.8 44.8 0 0 0 30.293333-12.373334l301.653333-301.653333a42.666667 42.666667 0 0 0 0-60.586667zM614.826667 469.333333H554.666667V409.173333l258.986666-259.413333 60.586667 60.586667zM85.333333 341.333333h170.666667a42.666667 42.666667 0 0 0 0-85.333333H213.333333V170.666667h384a42.666667 42.666667 0 0 0 0-85.333334H170.666667a42.666667 42.666667 0 0 0-42.666667 42.666667v128H85.333333a42.666667 42.666667 0 0 0 0 85.333333zM85.333333 469.333333h170.666667a42.666667 42.666667 0 0 0 0-85.333333H85.333333a42.666667 42.666667 0 0 0 0 85.333333zM85.333333 597.333333h170.666667a42.666667 42.666667 0 0 0 0-85.333333H85.333333a42.666667 42.666667 0 0 0 0 85.333333z" p-id="2401"></path></svg>