<?xml version="1.0" standalone="no"?><!DOCTYPE svg PUBLIC "-//W3C//DTD SVG 1.1//EN" "http://www.w3.org/Graphics/SVG/1.1/DTD/svg11.dtd"><svg t="1546575421075" class="icon" style="" viewBox="0 0 1024 1024" version="1.1" xmlns="http://www.w3.org/2000/svg" p-id="19634" xmlns:xlink="http://www.w3.org/1999/xlink" width="200" height="200"><defs><style type="text/css"></style></defs><path d="M979.701586 327.496869C929.450089 208.863958 835.427692 113.743554 718.139405 62.890352c31.730679-25.284873 71.676459-40.442084 115.163903-40.442084 102.908788 0 186.378851 84.424808 186.378851 188.538027C1019.682159 255.042697 1004.667188 295.41315 979.701586 327.496869zM972.087165 536.080441c0 123.662461-47.985898 235.710396-125.753075 319.073012l64.381309 65.088414c8.499581 8.640798 13.775748 20.539802 13.775748 33.711799 0 26.278503-21.071921 47.597041-47.063899 47.597041-12.995989 0-24.752754-5.311982-33.287127-13.953803l-69.127404-69.905116c-74.579579 52.694129-165.131945 83.857896-263.013229 83.857896-97.704253 0-188.078563-31.021527-262.587534-83.574441l-68.630077 69.478398c-8.640798 8.712429-20.538779 14.09502-33.67803 14.09502-26.276457 0-47.596018-21.601994-47.596018-48.160883 0-13.316284 5.348821-25.356504 13.917988-34.06791l63.850214-64.594157c-77.520561-83.290985-125.363196-195.196681-125.363196-318.647317 0-257.099543 205.998701-465.469244 460.086653-465.469244C766.089487 70.611198 972.087165 278.980899 972.087165 536.080441zM511.999488 166.863379c-201.535039 0-364.896664 165.307953-364.896664 369.218086 0 203.837478 163.361625 369.145431 364.896664 369.145431 201.537086 0 364.897687-165.307953 364.897687-369.145431C876.897176 332.171332 713.536574 166.863379 511.999488 166.863379zM702.38049 584.242348 511.999488 584.242348c-26.311249 0-47.594995-21.600971-47.594995-48.160883L464.404494 279.265378c0-26.631544 21.283746-48.161906 47.594995-48.161906 26.313296 0 47.597041 21.530362 47.597041 48.161906l0 208.653157L702.38049 487.918535c26.312272 0 47.597041 21.532409 47.597041 48.161906C749.976508 562.640354 728.692762 584.242348 702.38049 584.242348zM45.148781 334.013283c-25.497721-32.791847-40.831964-74.013691-40.831964-118.986975 0-106.380866 85.23936-192.575993 190.381002-192.575993 44.444235 0 85.204567 15.510252 117.607558 41.291428C192.501804 115.656113 96.498286 212.830293 45.148781 334.013283z" p-id="19635"></path></svg>