<?xml version="1.0" standalone="no"?><!DOCTYPE svg PUBLIC "-//W3C//DTD SVG 1.1//EN" "http://www.w3.org/Graphics/SVG/1.1/DTD/svg11.dtd"><svg t="1541662233456" class="icon" style="" viewBox="0 0 1024 1024" version="1.1" xmlns="http://www.w3.org/2000/svg" p-id="971" xmlns:xlink="http://www.w3.org/1999/xlink" width="200" height="200"><defs><style type="text/css"></style></defs><path d="M928 76.8h-832c-19.2 0-32 12.8-32 32v582.4c0 19.2 12.8 32 32 32H256c19.2 0 32-12.8 32-32s-12.8-32-32-32H128V140.8h768v518.4H512c-19.2 0-32 12.8-32 32v192H320c-19.2 0-32 12.8-32 32s12.8 32 32 32h371.2c19.2 0 32-12.8 32-32s-12.8-32-32-32H544v-160h384c19.2 0 32-12.8 32-32V108.8c0-19.2-12.8-32-32-32z" fill="" p-id="972"></path><path d="M339.2 364.8c-19.2 0-32 12.8-32 32s12.8 32 32 32H384c0 12.8 6.4 25.6 12.8 32l-32 38.4c-12.8 12.8-12.8 32 0 44.8 6.4 6.4 19.2 6.4 25.6 6.4s19.2 0 25.6-6.4l32-38.4c6.4 6.4 19.2 12.8 32 19.2v44.8c0 19.2 12.8 32 32 32s32-12.8 32-32v-44.8c12.8-6.4 25.6-12.8 32-19.2l32 32c6.4 6.4 12.8 6.4 25.6 6.4s19.2 0 25.6-6.4c12.8-12.8 12.8-32 0-44.8l-38.4-32c6.4-6.4 12.8-19.2 19.2-32h44.8c19.2 0 32-12.8 32-32s-12.8-32-32-32H640c0-12.8-6.4-25.6-12.8-32l32-32c12.8-12.8 12.8-32 0-44.8s-32-12.8-44.8 0l-38.4 32c-6.4-6.4-19.2-12.8-32-19.2v-44.8c0-19.2-12.8-32-32-32s-32 12.8-32 32v44.8c-12.8 6.4-25.6 12.8-32 19.2l-32-38.4c-12.8-12.8-32-12.8-44.8 0-12.8 12.8-12.8 32 0 44.8l32 32-19.2 38.4h-44.8zM512 332.8c38.4 0 64 32 64 64s-32 64-64 64-64-32-64-64 25.6-64 64-64z" fill="" p-id="973"></path></svg>