<?xml version="1.0" standalone="no"?><!DOCTYPE svg PUBLIC "-//W3C//DTD SVG 1.1//EN" "http://www.w3.org/Graphics/SVG/1.1/DTD/svg11.dtd"><svg t="1550742700378" class="icon" style="" viewBox="0 0 1024 1024" version="1.1" xmlns="http://www.w3.org/2000/svg" p-id="1101" xmlns:xlink="http://www.w3.org/1999/xlink" width="200" height="200"><defs><style type="text/css"></style></defs><path d="M832 384c106 0 192-86 192-192S938 0 832 0 640 86 640 192c0 22.2 3.8 43.5 10.7 63.4l-192.2 106C412.5 297.6 337.6 256 253 256 113.3 256 0 369.3 0 509s113.3 253 253 253c77.6 0 147.1-35 193.5-90.1l204.6 133.3c-7.2 18.2-11.1 38-11.1 58.8 0 88.4 71.6 160 160 160s160-71.6 160-160-71.6-160-160-160c-44.6 0-84.9 18.2-113.9 47.6L481.3 618.2C497.1 585.1 506 548.1 506 509c0-32.2-6-63-17-91.4l192.7-106.2C716.8 355.6 771.1 384 832 384zM800 768c52.9 0 96 43.1 96 96s-43.1 96-96 96-96-43.1-96-96S747.1 768 800 768zM253 698c-50.5 0-97.9-19.7-133.6-55.4S64 559.5 64 509s19.7-97.9 55.4-133.6S202.5 320 253 320s97.9 19.7 133.6 55.4S442 458.5 442 509s-19.7 97.9-55.4 133.6S303.5 698 253 698zM741.5 101.5C765.7 77.3 797.8 64 832 64s66.3 13.3 90.5 37.5c24.2 24.2 37.5 56.3 37.5 90.5s-13.3 66.3-37.5 90.5C898.3 306.7 866.2 320 832 320s-66.3-13.3-90.5-37.5C717.3 258.3 704 226.2 704 192S717.3 125.7 741.5 101.5z" p-id="1102"></path></svg>